<?xml version="1.0" encoding="UTF-8" standalone="no"?>
<!DOCTYPE svg PUBLIC "-//W3C//DTD SVG 1.1//EN"
 "http://www.w3.org/Graphics/SVG/1.1/DTD/svg11.dtd">
<!-- Generated by graphviz version 2.50.0 (20211204.2007)
 -->
<!-- Title: G Pages: 1 -->
<svg width="207pt" height="188pt"
 viewBox="0.00 0.00 207.04 188.00" xmlns="http://www.w3.org/2000/svg" xmlns:xlink="http://www.w3.org/1999/xlink">
<g id="graph0" class="graph" transform="scale(1 1) rotate(0) translate(4 184)">
<title>G</title>
<!-- main -->
<g id="node1" class="node">
<title>main</title>
<ellipse fill="white" stroke="black" cx="68.4" cy="-162" rx="33.6" ry="18"/>
<text text-anchor="middle" x="68.4" y="-158.3" font-family="Times,serif" font-size="14.00">main</text>
</g>
<!-- parse -->
<g id="node2" class="node">
<title>parse</title>
<ellipse fill="white" stroke="black" cx="36.4" cy="-90" rx="36.29" ry="18"/>
<text text-anchor="middle" x="36.4" y="-86.3" font-family="Times,serif" font-size="14.00">parse</text>
</g>
<!-- main&#45;&gt;parse -->
<g id="edge1" class="edge">
<title>main&#45;&gt;parse</title>
<path fill="none" stroke="black" d="M60.81,-144.41C57.08,-136.25 52.5,-126.22 48.31,-117.07"/>
<polygon fill="black" stroke="black" points="51.49,-115.6 44.15,-107.96 45.12,-118.51 51.49,-115.6"/>
</g>
<!-- printf -->
<g id="node3" class="node">
<title>printf</title>
<ellipse fill="white" stroke="black" cx="68.4" cy="-18" rx="37.09" ry="18"/>
<text text-anchor="middle" x="68.4" y="-14.3" font-family="Times,serif" font-size="14.00">printf</text>
</g>
<!-- main&#45;&gt;printf -->
<g id="edge3" class="edge">
<title>main&#45;&gt;printf</title>
<path fill="none" stroke="black" d="M73.67,-144.01C76.59,-133.7 79.92,-120.23 81.4,-108 83.32,-92.12 83.32,-87.88 81.4,-72 80.36,-63.4 78.4,-54.19 76.32,-45.89"/>
<polygon fill="black" stroke="black" points="79.64,-44.75 73.67,-35.99 72.87,-46.56 79.64,-44.75"/>
</g>
<!-- parse&#45;&gt;printf -->
<g id="edge2" class="edge">
<title>parse&#45;&gt;printf</title>
<path fill="none" stroke="black" d="M44.14,-72.05C47.84,-63.97 52.34,-54.12 56.46,-45.11"/>
<polygon fill="black" stroke="black" points="59.75,-46.34 60.72,-35.79 53.38,-43.43 59.75,-46.34"/>
</g>
<!-- debug -->
<g id="node4" class="node">
<title>debug</title>
<ellipse fill="white" stroke="black" cx="159.4" cy="-162" rx="39.79" ry="18"/>
<text text-anchor="middle" x="159.4" y="-158.3" font-family="Times,serif" font-size="14.00">debug</text>
</g>
</g>
</svg>
